<?xml version="1.0" encoding="UTF-8"?>
<svg width="32px" height="32px" viewBox="0 0 32 32" version="1.1" xmlns="http://www.w3.org/2000/svg" xmlns:xlink="http://www.w3.org/1999/xlink">
    <title>Group 8 Copy 2</title>
    <g id="Page-1" stroke="none" stroke-width="1" fill="none" fill-rule="evenodd">
        <g id="Club-Logo-Copy-3">
            <path d="M32,15.9979463 C32.000666,23.6308541 26.6092584,30.2012503 19.123056,31.6908099 C11.6368535,33.1803695 4.14095907,29.1742113 1.21971416,22.1224227 C-1.70153074,15.0706342 0.765516889,6.93732263 7.11205929,2.69666128 C13.4586017,-1.54400007 21.916961,-0.710876233 27.3141712,4.68651065 C30.3141213,7.68655896 31.9996298,11.7553207 32,15.9979463 Z" id="Shape" fill="#149A59" fill-rule="nonzero"></path>
            <path d="M31.6393803,15.9979463 C31.6393803,7.35807746 24.6352251,0.354079873 15.9952997,0.354079873 C7.35537425,0.354079873 0.351330829,7.35807746 0.351330829,15.9979463 C0.351330829,24.6378152 7.35537425,31.6419246 15.9952997,31.6419246 C20.1491395,31.6575396 24.1373884,30.014402 27.0746177,27.0771919 C30.0118471,24.1399818 31.6549954,20.151759 31.6393803,15.9979463 L31.6393803,15.9979463 Z" id="Shape" fill="#149A59" fill-rule="nonzero"></path>
            <path d="M26.5835059,15.9979463 C26.5835059,21.8425635 21.8454765,26.5805619 16.0008211,26.5805619 C10.1561656,26.5805619 5.41813626,21.8425635 5.41813626,15.9979463 C5.41813626,10.1533291 10.1561656,5.41533078 16.0008211,5.41533078 C18.8075236,5.41533078 21.4992709,6.53028172 23.4839092,8.51490711 C25.4685476,10.4995325 26.5835059,13.1912622 26.5835059,15.9979463 Z" id="Shape" fill="#212529"></path>
            <path d="M8.78435026,21.2782114 C8.88689219,21.1591225 9.03253707,21.0856385 9.18925298,21.0739209 C9.45980162,21.0739209 9.66593392,21.3499891 9.73035026,21.4420119 C9.7947666,21.5340346 10.0008989,21.8101028 10.2714475,21.8101028 C10.5419962,21.8101028 10.7481285,21.5340346 10.8235876,21.4420119 C10.8990468,21.3499891 11.0941362,21.0739209 11.3646849,21.0739209 C11.6352335,21.0739209 11.8413658,21.3499891 11.916825,21.4420119 C11.9922841,21.5340346 12.1873736,21.8101028 12.4579222,21.8101028 C12.7284709,21.8101028 12.9346032,21.5340346 12.9990195,21.4420119 C13.0634359,21.3499891 13.2714086,21.0739209 13.5511596,21.0739209 C13.8309106,21.0739209 14.0278405,21.3499891 14.0922569,21.4420119 C14.1566732,21.5340346 14.3628055,21.8101028 14.6333541,21.8101028 C14.9039028,21.8101028 15.1100351,21.5340346 15.1854942,21.4420119 C15.2609534,21.3499891 15.4560428,21.0739209 15.7265915,21.0739209 C15.9971401,21.0739209 16.2032724,21.3499891 16.2676888,21.4420119 C16.3321051,21.5340346 16.5400779,21.8101028 16.8198288,21.8101028 C17.0995798,21.8101028 17.2965098,21.5340346 17.3609261,21.4420119 C17.4253425,21.3499891 17.6314747,21.0739209 17.9130662,21.0739209 C18.1946576,21.0739209 18.3897471,21.3499891 18.4541635,21.4420119 C18.5185798,21.5340346 18.7247121,21.8101028 18.9952607,21.8101028 C19.2658094,21.8101028 19.4737821,21.5340346 19.5474008,21.4420119 C19.6210195,21.3499891 19.8179495,21.0739209 20.0884981,21.0739209 C20.2950751,21.1011817 20.4793554,21.217533 20.592786,21.3923196 C23.0835805,20.144736 24.8652948,17.8245211 25.4276926,15.0961234 C25.0595992,15.4366076 19.954144,16.3145046 18.3879067,15.9703395 C16.8216693,15.6261744 14.0094358,14.5182206 9.74139306,19.8665825 C9.74139306,19.8665825 9.82421407,17.6580366 10.9597822,16.724926 C12.0953503,15.7918154 15.058502,14.9452061 16.1627821,13.3697768 C17.4014164,11.606621 16.2732102,8.61220091 13.9542218,8.61220091 C13.9542218,8.59011545 9.79292613,8.61220091 9.36409734,9.75512338 C9.22606232,10.1232144 9.49661096,10.4821031 9.41563041,10.8465131 C9.32360707,11.2624559 9.04753703,11.4741082 9.04753703,11.9655097 C10.9027277,11.7814642 12.0879884,8.73367093 14.2137277,9.77168748 C14.6336855,9.9811117 14.9225302,10.385078 14.9848833,10.850194 C15.224144,12.6575207 12.4947316,13.8206882 11.2303308,14.4041124 L9.41931135,15.442129 C8.64999617,15.9592968 7.89540474,16.6954787 7.55307789,17.5512902 C7.40015291,18.0141065 7.3548318,18.5057115 7.42056427,18.9886855 C7.5537816,19.9024347 8.04430337,20.7259234 8.78435026,21.2782114 L8.78435026,21.2782114 Z" id="Shape" fill="#FFFFFF" fill-rule="nonzero"></path>
        </g>
    </g>
</svg>