<?xml version="1.0" encoding="UTF-8"?>
<svg width="180px" height="180px" viewBox="0 0 180 180" version="1.1" xmlns="http://www.w3.org/2000/svg" xmlns:xlink="http://www.w3.org/1999/xlink">
    <title>newingtonfc copy</title>
    <g id="Page-1" stroke="none" stroke-width="1" fill="none" fill-rule="evenodd">
        <g id="newingtonfc-copy">
            <path d="M179.845272,90.1753582 C179.849005,132.95547 149.632014,169.78053 107.674415,178.129055 C65.7168157,186.477581 23.7048968,164.02429 7.33232046,124.501174 C-9.04025592,84.9780575 4.78670041,39.3933357 40.3568952,15.6257268 C75.92709,-8.14188202 123.333295,-3.47247794 153.582808,26.7782235 C170.3965,43.592576 179.843197,66.3967399 179.845272,90.1753582 Z" id="Shape" fill="#149A59" fill-rule="nonzero"></path>
            <path d="M177.824123,90.1753582 C177.824123,41.7515377 138.568233,2.49627507 90.1444126,2.49627507 C41.7205921,2.49627507 2.46532951,41.7515377 2.46532951,90.1753582 C2.46532951,138.599179 41.7205921,177.855068 90.1444126,177.855068 C113.425261,177.942586 135.778029,168.733302 152.240193,152.271138 C168.702357,135.808975 177.91164,113.456207 177.824123,90.1753582 L177.824123,90.1753582 Z" id="Shape" fill="#149A59" fill-rule="nonzero"></path>
            <path d="M149.487679,90.1753582 C149.487679,122.932648 122.932648,149.487679 90.1753582,149.487679 C57.4180678,149.487679 30.8630372,122.932648 30.8630372,90.1753582 C30.8630372,57.4180678 57.4180678,30.8630372 90.1753582,30.8630372 C105.905964,30.8630372 120.992285,37.111996 132.115502,48.2352138 C143.23872,59.3584317 149.487679,74.4447526 149.487679,90.1753582 Z" id="Shape" fill="#212529"></path>
            <path d="M19.6916905,122.884814 L19.3512894,122.018338 C19.8603128,121.841502 20.337496,121.583753 20.7644699,121.255014 C20.8366762,121.182808 20.8469914,121.038395 20.7644699,120.832092 C20.5702418,120.031966 20.311516,119.248889 19.9908309,118.490544 L19.660745,117.70659 L18.5673352,118.139828 C17.0200573,118.758739 15.9266476,119.171347 15.3180516,119.501433 C14.9474349,119.650636 14.600075,119.852105 14.286533,120.099713 C14.2252387,120.19434 14.1996412,120.307701 14.2143266,120.419484 C14.3248089,120.962104 14.4730199,121.496352 14.6578797,122.018338 L13.8842407,122.327794 L12.3988539,118.418338 C12.1719198,117.851003 11.8005731,116.974212 11.2744986,115.77765 L12.0790831,115.447564 C12.2439259,115.899356 12.4511535,116.334533 12.6979943,116.747278 C12.7421753,116.796544 12.7993931,116.832305 12.8630372,116.85043 C13.0543882,116.874271 13.248663,116.853078 13.4303725,116.788539 C13.5851003,116.788539 14.069914,116.582235 14.8744986,116.303725 L16.6074499,115.664183 L20.6613181,114.055014 L23.3845272,112.899713 C23.7468534,112.758969 24.09274,112.579108 24.4160458,112.363324 C24.4720669,112.321105 24.514984,112.263882 24.5398281,112.198281 C24.5545183,112.092197 24.5545183,111.984594 24.5398281,111.87851 C24.4380584,111.463002 24.3140985,111.053246 24.1684814,110.651003 L25.0452722,110.300287 L26.3759312,113.82808 L28.3461318,118.531805 C28.5980651,119.159931 28.8183981,119.800273 29.0063037,120.45043 L28.9031519,120.594842 C28.5008596,120.677364 27.9954155,120.801146 27.3971347,120.986819 C26.7988539,121.172493 26.2830946,121.337536 25.8498567,121.502579 L25.530086,120.687679 L26.5616046,120.233811 C26.7328501,120.163073 26.895499,120.073097 27.0464183,119.965616 C27.0771347,119.93022 27.0984223,119.887645 27.1083095,119.841834 C27.120769,119.535752 27.0859765,119.229579 27.0051576,118.934097 C26.8887666,118.408596 26.7265413,117.894308 26.5203438,117.397135 C26.5203438,117.283668 26.3449857,116.974212 26.1283668,116.479083 C25.9117479,115.983954 25.7673352,115.643553 25.6848138,115.447564 C24.4792623,115.827927 23.294783,116.272106 22.1363897,116.778223 L20.7747851,117.324928 C21.0636103,118.181089 21.2595989,118.758739 21.3730659,119.047564 C21.5612867,119.596675 21.8177352,120.119968 22.1363897,120.605158 C22.2141378,120.684453 22.3265485,120.71934 22.4355301,120.697994 C22.8369455,120.639945 23.2288968,120.52895 23.6011461,120.367908 L23.9415473,121.234384 L19.6916905,122.884814 Z" id="Shape" fill="#FFFFFF" fill-rule="nonzero"></path>
            <path d="M22.9100287,125.412034 C23.8418322,124.754411 24.8929855,124.284896 26.0045845,124.029799 C26.9788808,123.807465 27.9907467,123.807465 28.965043,124.029799 C29.8796342,124.242999 30.7401288,124.643392 31.4922636,125.205731 C32.4506286,125.952616 33.279979,126.85166 33.9472779,127.867049 C34.6177721,128.849853 35.1197784,129.937533 35.4326648,131.085387 C35.6370814,131.858787 35.6896267,132.664481 35.5873926,133.45788 C35.5107848,134.155121 35.319072,134.83483 35.0200573,135.469341 C34.7274665,136.041743 34.3597466,136.572508 33.9266476,137.047564 C33.4523491,137.575081 32.9154264,138.042723 32.3277937,138.440115 C31.2855522,139.147771 30.1152728,139.645315 28.8825215,139.904871 C27.9912395,140.090646 27.0712247,140.090646 26.1799427,139.904871 C25.2872294,139.731469 24.4383842,139.380707 23.6836676,138.873352 C22.5841158,138.110068 21.647808,137.135186 20.9295129,136.005731 C20.1119531,134.853689 19.5782488,133.52473 19.3719198,132.127221 C19.21417,130.87564 19.4294746,129.605343 19.9908309,128.475645 C20.6810674,127.218064 21.6872154,126.162142 22.9100287,125.412034 L22.9100287,125.412034 Z M25.2412607,127.763897 C24.0583103,128.49883 23.0313873,129.459161 22.2189112,130.590258 C21.6350797,131.380039 21.3107088,132.331527 21.2905444,133.313467 C21.3914237,135.066506 22.4113733,136.635659 23.9724928,137.439542 C24.8313331,137.799916 25.7854561,137.865218 26.6853868,137.625215 C27.9242839,137.329962 29.094258,136.797518 30.130659,136.057307 C30.888253,135.5644 31.581299,134.978777 32.1936963,134.31404 C32.7124477,133.747736 33.127905,133.094874 33.4212034,132.3851 C33.6627423,131.775868 33.764951,131.120322 33.7203438,130.466476 C33.619614,129.721266 33.3361241,129.012542 32.8951289,128.403438 C32.3984781,127.615674 31.6809998,126.991467 30.8320917,126.608596 C29.9861682,126.276519 29.0542754,126.233006 28.1810888,126.484814 C27.1462702,126.74409 26.1627677,127.176552 25.2722063,127.763897 L25.2412607,127.763897 Z" id="Shape" fill="#FFFFFF" fill-rule="nonzero"></path>
            <path d="M33.7100287,140.884814 C34.4669156,140.026595 35.385201,139.325614 36.4126074,138.821777 C37.307617,138.377571 38.2914213,138.141317 39.2905444,138.130659 C40.2282531,138.115578 41.1589388,138.294691 42.0240688,138.656734 C43.1379416,139.143884 44.162863,139.81322 45.0567335,140.637249 C45.9447952,141.423561 46.6975285,142.350538 47.2848138,143.381089 C47.9995265,144.716397 48.239568,146.254845 47.965616,147.744413 C47.8244583,148.371805 47.5952532,148.976073 47.2848138,149.539255 C46.9410791,150.174589 46.5182273,150.763809 46.026361,151.292837 C45.1892869,152.235506 44.1767731,153.006278 43.0452722,153.562178 C42.2278603,153.964933 41.3356113,154.193264 40.4252149,154.232665 C39.518892,154.286369 38.6109018,154.160162 37.7535817,153.861318 C36.5067142,153.397579 35.3613206,152.697032 34.3805158,151.798281 C33.3040798,150.880077 32.4594292,149.720891 31.9151862,148.4149 C31.4542995,147.239956 31.3537514,145.954376 31.626361,144.722063 C31.9637774,143.279092 32.683531,141.953606 33.7100287,140.884814 L33.7100287,140.884814 Z M36.5467049,142.566189 C35.5790387,143.568235 34.8214963,144.753648 34.3186246,146.052722 C33.9441184,146.95726 33.8611813,147.956112 34.0813754,148.910029 C34.6144351,150.574638 35.9872969,151.833749 37.6916905,152.221203 C38.6112633,152.354555 39.5492389,152.184344 40.3633238,151.73639 C41.4693006,151.155623 42.4533403,150.367691 43.2618911,149.415473 C43.8867038,148.747894 44.4176601,147.998308 44.8401146,147.187393 C45.2077306,146.514885 45.4489659,145.78069 45.5518625,145.021203 C45.6489592,144.370052 45.5888323,143.70512 45.3765043,143.081948 C45.0979997,142.382863 44.6473785,141.765476 44.0664756,141.287106 C43.3954611,140.636828 42.5430795,140.205242 41.6217765,140.049284 C40.7176313,139.931472 39.7999266,140.116464 39.0120344,140.575358 C38.0852554,141.097239 37.2520406,141.770086 36.5467049,142.566189 L36.5467049,142.566189 Z" id="Shape" fill="#FFFFFF" fill-rule="nonzero"></path>
            <path d="M46.7587393,160.679656 L47.1816619,159.916332 C47.6138207,160.180876 48.0832307,160.379071 48.574212,160.504298 C48.7584753,160.50069 48.933403,160.42253 49.0590258,160.287679 C49.5995855,159.548862 50.082391,158.769476 50.5031519,157.956447 L53.5977077,152.427507 C54.443553,150.92149 54.8974212,150.075645 54.9593123,149.869341 L53.6492837,149.136963 C52.9787966,148.765616 52.3908309,148.45616 51.8647564,148.218911 C51.743725,148.151771 51.6104196,148.109675 51.4727794,148.095129 C51.354686,148.157701 51.2550907,148.250183 51.1839542,148.363324 C50.8294712,148.809051 50.5153394,149.285427 50.2452722,149.786819 L49.4819484,149.353582 L50.6269341,147.208023 C50.7610315,146.919198 50.8951289,146.620057 51.0292264,146.279656 L51.1633238,146.22808 C51.4383954,146.413754 51.7375358,146.599427 52.060745,146.7851 C52.5868195,147.094556 53.5977077,147.672206 55.1553009,148.518052 L58.8790831,150.581089 L61.973639,152.31404 L62.860745,152.757593 L62.860745,152.891691 C62.6028653,153.242407 62.3759312,153.551862 62.2108883,153.820057 C62.2108883,153.820057 61.7879656,154.531805 61.0452722,155.821203 L60.2819484,155.387966 C60.530715,154.921712 60.7478244,154.439247 60.9318052,153.94384 C61.0054589,153.80053 61.0409826,153.640673 61.034957,153.479656 C60.9682037,153.384637 60.8798126,153.306853 60.7770774,153.252722 C60.2082862,152.855023 59.6195537,152.486635 59.0131805,152.148997 L57.6928367,151.406304 C57.5587393,151.602292 57.0739255,152.437822 56.2487106,153.912894 L53.1541547,159.441834 C52.6740578,160.227953 52.2600294,161.052559 51.9163324,161.907163 C51.8727995,162.078574 51.8987521,162.260242 51.9885387,162.412607 C52.3480872,162.76697 52.7582977,163.065937 53.2057307,163.299713 L52.782808,164.052722 C51.617192,163.351289 50.6166189,162.763324 49.8017192,162.309456 C48.9868195,161.855587 47.9140401,161.277937 46.7587393,160.679656 Z" id="Shape" fill="#FFFFFF" fill-rule="nonzero"></path>
            <path d="M59.6114613,167.260745 L59.7661891,166.786246 C60.1200403,166.705729 60.4654341,166.591749 60.7977077,166.445845 C60.9421203,166.126074 61.1071633,165.734097 61.2722063,165.259599 C61.6091691,164.289971 62.1936963,162.512321 63.025788,159.926648 C63.2527221,159.23553 63.582808,158.152436 64.0573066,156.677364 C64.2843827,156.03632 64.4569156,155.377245 64.5730659,154.707163 C64.5761814,154.614251 64.5470217,154.523127 64.4905444,154.449284 C64.0487337,154.141525 63.5614562,153.904848 63.0464183,153.747851 L63.3146132,152.912321 L63.7684814,153.077364 L65.1507163,153.562178 L66.8424069,154.119198 C67.512894,154.335817 68.0492837,154.490544 68.4309456,154.604011 C69.4624642,154.861891 70.0504298,155.047564 70.3495702,155.140401 C71.2290864,155.384235 72.059708,155.778606 72.8045845,156.306017 C73.7487665,156.992237 74.1304328,158.216925 73.7432665,159.318052 C73.553178,159.901088 73.1941479,160.414501 72.7117479,160.793123 C72.2490012,161.176193 71.7004461,161.441623 71.112894,161.566762 C70.3855563,161.635109 69.6534122,161.635109 68.9260745,161.566762 C69.8184044,161.916067 70.6503218,162.403382 71.391404,163.010888 C71.8001193,163.417119 72.0738385,163.939347 72.1753582,164.50659 C72.2971153,165.121569 72.2580317,165.757566 72.0618911,166.353009 C71.8646652,166.985206 71.509667,167.556754 71.0303725,168.013754 C70.5690766,168.452707 70.0304834,168.802443 69.4418338,169.045272 C68.8346769,169.278215 68.1936029,169.410611 67.5438395,169.437249 C66.7362605,169.445173 65.9334598,169.312537 65.1713467,169.045272 L61.808596,167.900287 C61.2206304,167.714613 60.5088825,167.508309 59.6114613,167.260745 Z M63.8406877,167.394842 C64.2332759,167.58205 64.6403268,167.737281 65.0578797,167.859026 C65.8040402,168.131875 66.6318353,168.067909 67.3272206,167.683668 C68.0711045,167.207922 68.611556,166.472613 68.843553,165.62063 C69.0646788,165.017104 69.1216326,164.365694 69.008596,163.732951 C68.9056945,163.229322 68.6413198,162.773004 68.2555874,162.433238 C67.7370537,162.041191 67.1490797,161.750704 66.5226361,161.577077 C66.2648938,161.488298 65.9987556,161.426084 65.7283668,161.391404 L64.2636103,165.971347 L63.9025788,167.178223 C63.9025788,167.178223 63.8716332,167.25043 63.8406877,167.394842 L63.8406877,167.394842 Z M66.0893983,160.236103 L66.6670487,160.421777 C67.0937585,160.56098 67.5322389,160.661105 67.9770774,160.720917 C68.3235284,160.767707 68.676067,160.735979 69.008596,160.62808 C69.3503628,160.497703 69.652465,160.2809 69.8853868,159.998854 C70.1893661,159.652421 70.4145996,159.244185 70.5455587,158.802292 C70.6923948,158.374854 70.7313716,157.917762 70.6590258,157.471633 C70.5910864,157.105225 70.415054,156.76753 70.1535817,156.502006 C69.769177,156.199047 69.3268784,155.977897 68.8538682,155.852149 C68.4103152,155.707736 68.0080229,155.604585 67.6366762,155.522063 C67.4510029,156.006877 67.2550143,156.553582 67.0383954,157.203438 L66.5226361,158.771347 L66.0893983,160.236103 Z" id="Shape" fill="#FFFFFF" fill-rule="nonzero"></path>
            <path d="M74.5375358,171.799427 L74.6200573,170.932951 C74.9635946,170.953339 75.3080386,170.953339 75.6515759,170.932951 C75.7549698,170.910819 75.8530684,170.868777 75.9404011,170.809169 C76.0445356,170.72372 76.1349807,170.622839 76.208596,170.510029 C76.3014327,170.375931 76.5902579,169.860172 77.0750716,168.973066 C77.3020057,168.560458 77.7352436,167.724928 78.3644699,166.497421 L81.7065903,159.957593 L82.8618911,157.646991 L84.3679083,157.791404 L88.0297994,169.22063 L88.5558739,170.726648 L88.8756447,171.758166 C88.9237996,171.860328 88.9825762,171.957137 89.0510029,172.046991 C89.110192,172.107539 89.1801566,172.156514 89.2573066,172.191404 C89.454421,172.259071 89.6586029,172.30406 89.8659026,172.325501 L90.3197708,172.418338 L90.2372493,173.284814 L87.3283668,172.954728 L83.6252149,172.665903 L83.7077364,171.799427 C84.1906684,171.859835 84.6792456,171.859835 85.1621777,171.799427 C85.2767023,171.749465 85.3499448,171.635533 85.347851,171.510602 C85.3481359,171.211522 85.2957605,170.914728 85.1931232,170.633811 L84.5020057,168.251003 L79.086533,167.745559 L78.5088825,168.952436 C78.2086409,169.506955 77.9765827,170.09576 77.817765,170.706017 C77.7899945,170.8451 77.8416378,170.988112 77.9518625,171.077364 C78.4240927,171.272731 78.9267203,171.384426 79.4372493,171.40745 L79.3547278,172.273926 L76.930659,171.9851 L74.5375358,171.799427 Z M79.6951289,166.518052 C80.3449857,166.621203 81.0876791,166.71404 81.912894,166.796562 C82.7381089,166.879083 83.4395415,166.910029 84.0790831,166.930659 L82.3461318,161.308883 L79.6951289,166.518052 Z" id="Shape" fill="#FFFFFF" fill-rule="nonzero"></path>
            <path d="M94.4148997,172.944413 L94.4148997,172.418338 C94.6687761,172.264441 94.9133291,172.095665 95.1472779,171.912894 C95.2535693,171.855256 95.3452984,171.774111 95.4154728,171.675645 C95.4288446,171.635467 95.4288446,171.59204 95.4154728,171.551862 C95.411076,170.92076 95.3697446,170.290456 95.2916905,169.664183 C95.1885387,168.632665 95.0544413,167.291691 94.8893983,165.785673 C94.6418338,163.578223 94.4767908,162.206304 94.4045845,161.659599 C94.3338291,160.904208 94.2027519,160.155688 94.0126074,159.421203 C93.9766938,159.343879 93.9145739,159.281759 93.8372493,159.245845 C93.2976349,159.15676 92.7470642,159.15676 92.2074499,159.245845 L92.0939828,158.317479 C92.991404,158.265903 94.0126074,158.162751 95.1885387,158.038968 C96.3644699,157.915186 97.6744986,157.739828 98.8091691,157.56447 L98.9226361,158.492837 C98.4217018,158.535032 97.9307125,158.656909 97.4681948,158.853868 C97.3940475,158.904872 97.3423441,158.982427 97.3237822,159.070487 C97.2848691,159.506296 97.2848691,159.944706 97.3237822,160.380516 C97.3856734,161.154155 97.47851,162.134097 97.6126074,163.310029 C97.6126074,163.433811 97.7467049,164.444699 97.973639,166.342693 C98.0974212,167.374212 98.2212034,168.34384 98.3346705,169.323782 C98.4481375,170.303725 98.530659,170.902006 98.5719198,171.118625 C99.5312321,171.046418 100.181089,170.994842 100.531805,170.953582 C101.454981,170.863528 102.369219,170.69793 103.26533,170.458453 C103.44034,170.421833 103.607798,170.355548 103.760458,170.262464 C103.833903,170.13599 103.879613,169.995344 103.894556,169.849857 C103.966762,169.292837 104.028653,168.66361 104.090544,167.962178 L104.946705,167.869341 C104.946705,168.06533 104.946705,168.178797 104.946705,168.220057 L104.946705,170.375931 C104.946705,171.056734 104.946705,171.40745 104.946705,171.593123 C104.751256,171.664379 104.551414,171.722953 104.348424,171.768481 C103.922063,171.851003 103.261891,171.94384 102.367908,172.046991 L99.8922636,172.284241 L97.47851,172.531805 C96.8595989,172.604011 95.817765,172.748424 94.4148997,172.944413 Z" id="Shape" fill="#FFFFFF" fill-rule="nonzero"></path>
            <path d="M109.433811,170.809169 L109.279083,170.29341 C109.502231,170.101194 109.712432,169.894439 109.908309,169.674499 C109.995455,169.587843 110.071667,169.490847 110.135244,169.385673 C110.145391,169.34155 110.145391,169.295699 110.135244,169.251576 C110.017743,168.634117 109.862728,168.024391 109.67106,167.425788 C109.37192,166.394269 109.000573,165.135817 108.55702,163.691691 C107.907163,161.556447 107.525501,160.246418 107.339828,159.751289 C107.130279,159.020207 106.864737,158.306348 106.545559,157.616046 C106.495955,157.542319 106.41705,157.493473 106.32894,157.481948 C105.78395,157.471169 105.241729,157.562122 104.730086,157.750143 L104.451576,156.852722 C105.328367,156.636103 106.308309,156.357593 107.412034,156.017192 C108.515759,155.676791 109.805158,155.264183 110.898567,154.882521 L111.166762,155.779943 C110.682969,155.912803 110.223368,156.121713 109.805158,156.398854 C109.742734,156.466679 109.706211,156.554335 109.702006,156.646418 C109.764856,157.077193 109.864945,157.501706 110.001146,157.915186 C110.197135,158.668195 110.475645,159.606877 110.816046,160.741547 L111.723782,163.67106 C112.033238,164.630372 112.332378,165.57937 112.631519,166.528367 C112.930659,167.477364 113.116332,168.044699 113.188539,168.240688 C114.127221,168.003438 114.756447,167.82808 115.086533,167.724928 C115.97557,167.450325 116.841341,167.105396 117.675645,166.69341 C117.844535,166.632893 117.999067,166.538066 118.129513,166.4149 C118.182889,166.277091 118.204059,166.128904 118.191404,165.981662 C118.191404,165.424642 118.139828,164.795415 118.036676,164.093983 L118.872206,163.836103 C118.888361,163.951106 118.912487,164.064847 118.944413,164.176504 L119.315759,166.311748 C119.460172,166.97192 119.553009,167.343266 119.583954,167.497994 C119.404681,167.603114 119.218594,167.696158 119.026934,167.776504 C118.624642,167.941547 117.995415,168.147851 117.12894,168.416046 L114.746132,169.107163 L112.4149,169.787966 C111.765043,170.025215 110.76447,170.355301 109.433811,170.809169 Z" id="Shape" fill="#FFFFFF" fill-rule="nonzero"></path>
            <path d="M139.688252,154.438968 L139.86361,155.594269 C139.450037,156.339733 138.947823,157.032441 138.367908,157.657307 C137.745212,158.278123 137.052954,158.825007 136.304871,159.287106 C135.177038,160.037719 133.91125,160.556657 132.581089,160.813754 C130.823272,161.113667 129.016831,160.745756 127.516332,159.782235 C126.474252,159.106057 125.59097,158.212218 124.927221,157.162178 C123.757117,155.467692 123.38071,153.34852 123.895702,151.354728 C124.601231,149.122403 126.137437,147.246459 128.186819,146.114613 C128.905936,145.648654 129.665431,145.248193 130.45616,144.918052 C131.307479,144.585419 132.183501,144.319853 133.076218,144.123782 L133.2,144.206304 C133.306899,144.615846 133.455528,145.013342 133.643553,145.39255 C133.983954,146.114613 134.324355,146.76447 134.675072,147.34212 L133.973639,147.785673 C133.550716,147.146132 133.2,146.630372 132.94212,146.259026 C132.307538,146.101912 131.647375,146.077331 131.002865,146.186819 C130.264708,146.363737 129.565392,146.674933 128.939828,147.104871 C127.644523,147.847863 126.728605,149.109127 126.422923,150.570774 C126.189266,152.158281 126.581297,153.774484 127.516332,155.07851 C128.058228,155.949821 128.757868,156.712429 129.57937,157.327221 C130.252873,157.817199 131.017364,158.167883 131.82808,158.358739 C132.503449,158.519571 133.202184,158.558001 133.891117,158.472206 C134.826729,158.314413 135.719107,157.963082 136.511175,157.440688 C137.096333,157.075949 137.63347,156.639308 138.110029,156.140974 C138.616807,155.589625 139.056542,154.980228 139.420057,154.325501 L139.688252,154.438968 Z" id="Shape" fill="#FFFFFF" fill-rule="nonzero"></path>
            <path d="M143.824642,153.355874 L143.453295,152.963897 C143.566322,152.689002 143.659399,152.406322 143.731805,152.118052 C143.775391,152.00638 143.796426,151.887181 143.793696,151.767335 C143.809755,151.727637 143.809755,151.683251 143.793696,151.643553 C143.408688,151.145743 142.9954,150.670461 142.555874,150.220057 C141.813181,149.425788 140.926074,148.487106 139.873926,147.393696 C138.326648,145.784527 137.367335,144.804585 136.995989,144.433238 C136.478906,143.875394 135.916527,143.361317 135.314613,142.896275 C135.238456,142.865852 135.153521,142.865852 135.077364,142.896275 C134.585645,143.142593 134.139213,143.470442 133.75702,143.865903 L133.107163,143.195415 C133.787966,142.60745 134.540974,141.906017 135.376504,141.132378 C136.212034,140.358739 137.161032,139.389112 137.965616,138.553582 L138.615473,139.224069 C138.246806,139.564188 137.930488,139.956979 137.676791,140.389685 C137.641259,140.475553 137.641259,140.572012 137.676791,140.65788 C137.926413,141.024147 138.205873,141.36916 138.512321,141.689398 C139.038395,142.267049 139.708883,142.989112 140.575358,143.834957 L142.700287,146.032092 L144.763324,148.17765 C145.454441,148.879083 145.877364,149.312321 146.042407,149.446418 C146.76447,148.817192 147.249284,148.4149 147.496848,148.13639 C148.171973,147.498381 148.796221,146.808603 149.363897,146.073352 C149.486784,145.94453 149.578528,145.78927 149.632092,145.619484 C149.618285,145.472238 149.56871,145.330595 149.487679,145.206877 C149.209169,144.722063 148.889398,144.175358 148.45616,143.597708 L149.085387,142.989112 L149.302006,143.267622 L150.601719,144.990258 C151.024642,145.516332 151.282521,145.825788 151.375358,145.92894 C151.266862,146.105577 151.146228,146.274465 151.014327,146.434384 C150.725501,146.754155 150.251003,147.228653 149.611461,147.85788 L147.795989,149.54957 L146.021777,151.210315 C145.547278,151.602292 144.804585,152.344986 143.824642,153.355874 Z" id="Shape" fill="#FFFFFF" fill-rule="nonzero"></path>
            <path d="M142.679656,135.345559 L141.957593,134.860745 L143.948424,132.044699 L144.742693,130.848138 L145.516332,129.641261 L145.732951,129.311175 L146.455014,129.806304 C146.138305,130.18182 145.915545,130.62734 145.805158,131.106017 C145.818009,131.253988 145.888376,131.391018 146.001146,131.487679 C146.709345,132.140878 147.475869,132.727855 148.291117,133.241261 L150.354155,134.623496 L151.385673,135.304298 C152.417192,136.036676 153.12894,136.469914 153.397135,136.614327 C153.882917,136.903125 154.431621,137.069506 154.995989,137.09914 C155.536688,137.090968 156.063411,136.926143 156.512321,136.624642 C157.11563,136.222486 157.628534,135.699042 158.018338,135.087679 C158.504893,134.433939 158.817256,133.667231 158.926074,132.859599 C158.98703,132.242862 158.853581,131.622504 158.544413,131.085387 C157.90577,130.259388 157.118673,129.559747 156.223496,129.02235 L154.438968,127.805158 C152.902006,126.773639 151.942693,126.134097 151.581662,125.948424 C151.146371,125.630243 150.675594,125.363701 150.178797,125.154155 C150.058251,125.133384 149.934235,125.155269 149.82808,125.216046 C149.415042,125.512583 149.064519,125.887643 148.796562,126.319771 L148.074499,125.834957 C148.827507,124.803438 149.27106,124.194842 149.405158,123.988539 C149.46374,123.914253 149.515525,123.83485 149.559885,123.751289 L150.838968,121.781089 L151.550716,122.276218 C151.289696,122.600993 151.099914,122.977043 150.993696,123.379943 C151.005888,123.508607 151.056168,123.630715 151.138109,123.730659 C151.671953,124.211141 152.237091,124.655671 152.829799,125.061318 C153.861318,125.824642 154.655587,126.412607 155.264183,126.825215 L157.327221,128.217765 C157.86894,128.589363 158.3858,128.99596 158.874499,129.434957 C159.335993,129.838052 159.717428,130.324469 159.998854,130.868768 C160.243216,131.408389 160.383217,131.989391 160.411461,132.581089 C160.435129,133.257454 160.333716,133.932377 160.112321,134.57192 C159.842589,135.341878 159.467693,136.070844 158.998281,136.738109 C158.425897,137.585819 157.730611,138.343681 156.935244,138.986819 C156.449656,139.383726 155.893083,139.684766 155.295129,139.873926 C154.79805,140.02654 154.274973,140.075688 153.758166,140.018338 C153.310297,139.969183 152.874176,139.84358 152.468768,139.646991 C152.241834,139.533524 151.664183,139.162178 150.746132,138.532951 L149.064756,137.408596 L146.836676,135.902579 C146.032092,135.345559 145.279083,134.87106 144.598281,134.448138 C144.406086,134.322164 144.19303,134.231353 143.969054,134.179943 C143.838114,134.176191 143.707913,134.200824 143.587393,134.252149 L142.679656,135.345559 Z" id="Shape" fill="#FFFFFF" fill-rule="nonzero"></path>
            <path d="M164.960458,126.061891 L164.496275,125.876218 C164.444742,125.50349 164.354868,125.137077 164.22808,124.782808 C163.918625,124.60745 163.536963,124.432092 163.083095,124.225788 C162.134097,123.826934 160.4149,123.118625 157.925501,122.10086 L154.758739,120.873352 C154.134979,120.603393 153.489755,120.386018 152.829799,120.223496 C152.738116,120.217408 152.647111,120.242889 152.57192,120.295702 C152.218563,120.706967 151.942488,121.178741 151.75702,121.688252 L150.952436,121.358166 L151.148424,120.914613 L151.726074,119.573639 C151.911748,119.130086 152.138682,118.54212 152.396562,117.923209 C152.654441,117.304298 152.860745,116.747278 152.994842,116.365616 C153.324928,115.406304 153.551862,114.787393 153.66533,114.498567 C153.969473,113.64039 154.419652,112.841236 154.995989,112.13639 C155.377458,111.680291 155.900177,111.364481 156.481375,111.238968 C157.014702,111.135673 157.566546,111.189424 158.069914,111.393696 C158.633112,111.620484 159.119822,112.003411 159.472779,112.497421 C159.824806,112.980266 160.048416,113.544617 160.122636,114.137536 C160.163187,114.871516 160.128624,115.607718 160.019484,116.33467 C160.422582,115.507884 160.947643,114.746372 161.577077,114.075645 C162.01207,113.689365 162.556379,113.447851 163.13467,113.384527 C163.757801,113.309224 164.389839,113.394442 164.970774,113.632092 C165.586447,113.872253 166.132455,114.262259 166.559312,114.766762 C166.956969,115.257326 167.261155,115.816748 167.456734,116.417192 C167.648311,117.041588 167.735443,117.693339 167.714613,118.346132 C167.664065,119.149412 167.475642,119.938 167.157593,120.677364 L165.785673,123.957593 C165.517479,124.432092 165.259599,125.14384 164.960458,126.061891 Z M158.4,119.109456 L158.626934,118.54212 C158.792341,118.128098 158.920079,117.700003 159.008596,117.263037 C159.085621,116.923511 159.085621,116.571044 159.008596,116.231519 C158.897574,115.883634 158.702747,115.568369 158.441261,115.313467 C158.113428,114.99395 157.723809,114.744735 157.296275,114.581089 C156.88037,114.402876 156.426377,114.33194 155.975931,114.374785 C155.594011,114.402695 155.231725,114.554855 154.944413,114.808023 C154.614923,115.171359 154.35918,115.595262 154.191404,116.05616 C154.026361,116.489398 153.892264,116.891691 153.789112,117.252722 C154.253295,117.469341 154.82063,117.70659 155.418911,117.954155 L156.955874,118.583381 L158.4,119.109456 Z M165.383381,121.853295 C165.596672,121.472946 165.77948,121.076288 165.930086,120.667049 C166.260287,119.946636 166.260287,119.11812 165.930086,118.397708 C165.499676,117.60882 164.783645,117.014588 163.92894,116.736963 C163.34379,116.474581 162.699724,116.371388 162.061891,116.437822 C161.551398,116.511215 161.077833,116.746189 160.710602,117.108309 C160.282453,117.595362 159.949996,118.15879 159.730659,118.769054 C159.630985,119.020164 159.551647,119.278876 159.49341,119.542693 L163.959885,121.337536 L165.146132,121.770774 L165.383381,121.853295 Z" id="Shape" fill="#FFFFFF" fill-rule="nonzero"></path>
            <path d="M24.4366762,70.9581662 C24.6176318,70.5228132 24.7658934,70.0745807 24.8802292,69.617192 C24.9007806,69.5394441 24.9007806,69.4576906 24.8802292,69.3799427 C24.7980721,69.2688596 24.6924061,69.1772824 24.5707736,69.1117479 C24.3438395,68.9673352 23.7661891,68.6681948 22.8584527,68.2040115 C22.3289398,67.956447 21.6412607,67.6469914 20.7954155,67.2756447 L17.7008596,65.9449857 L14.8641834,64.8 C14.5606555,64.6649568 14.2467473,64.5545715 13.9255014,64.469914 C13.8037162,64.4384692 13.67594,64.4384692 13.5541547,64.469914 C13.4367234,64.5190063 13.3362936,64.6015023 13.2653295,64.7071633 C13.0111806,65.0772462 12.7869731,65.4670223 12.5948424,65.8727794 L11.7386819,65.5014327 C12.130659,64.6968481 12.4091691,64.0985673 12.574212,63.7169054 L13.1415473,62.2934097 L13.5025788,61.3856734 C15.8131805,60.8011461 18.5157593,60.0412607 21.6103152,59.1060172 C23.8280802,58.4355301 25.6022923,57.8578797 26.9123209,57.3524355 L24.6842407,56.3931232 C21.2080229,54.9077364 19.1553009,54.0722063 18.4951289,53.886533 C18.3223936,53.8206932 18.1314746,53.8206932 17.9587393,53.886533 C17.5763365,54.297615 17.2877413,54.786819 17.112894,55.3203438 L16.225788,54.887106 C16.5971347,54.113467 16.9272206,53.391404 17.2573066,52.7415473 C17.5873926,52.0916905 17.8555874,51.2767908 18.2888252,50.2659026 L19.1449857,50.6269341 C18.9079157,51.0895175 18.7642104,51.5942386 18.722063,52.1123209 C18.7319114,52.1767933 18.7649158,52.2354677 18.8148997,52.2773639 C19.4513635,52.7332169 20.1321711,53.1237308 20.8469914,53.4429799 L23.3845272,54.5673352 C27.6859599,56.4137536 30.3163324,57.486533 31.2653295,57.8063037 L31.2653295,57.9713467 C30.9455587,58.4664756 30.6154728,59.0028653 30.295702,59.5083095 C27.0567335,60.6017192 22.2704871,62.069914 15.9369628,63.912894 L20.7644699,65.9759312 C21.7959885,66.4091691 22.8275072,66.8320917 23.9209169,67.2550143 C24.3762133,67.4567391 24.8493193,67.6155922 25.3340974,67.7295129 C25.4152284,67.7509372 25.500531,67.7509372 25.5816619,67.7295129 C25.6827318,67.6579122 25.7642895,67.5621706 25.8189112,67.4510029 C25.9953444,67.1618836 26.1538103,66.8621763 26.2934097,66.5535817 C26.3214205,66.4897728 26.3455336,66.424323 26.365616,66.3575931 L27.1908309,66.7083095 C26.6544413,67.9358166 26.3346705,68.6269341 26.2624642,68.7713467 C25.9942693,69.4005731 25.6538682,70.2567335 25.2309456,71.3501433 L24.4366762,70.9581662 Z" id="Shape" fill="#FFFFFF" fill-rule="nonzero"></path>
            <path d="M34.7518625,52.0401146 L34.3083095,51.6790831 C34.4142089,51.2921489 34.4730862,50.8938613 34.4836676,50.4928367 C34.2876791,50.2762178 33.9369628,49.9461318 33.452149,49.4613181 C32.5444126,48.6567335 31.8739255,48.0790831 31.4510029,47.7283668 L27.7581662,44.7266476 C27.6137536,44.6131805 27.0670487,44.1902579 26.1180516,43.47851 C25.7469061,43.1563614 25.3340173,42.8857284 24.8905444,42.6739255 C24.8205371,42.6487237 24.7439328,42.6487237 24.6739255,42.6739255 C24.264522,42.9667813 23.8967037,43.3137797 23.5805158,43.7054441 L22.9100287,43.2722063 L24.4366762,41.3535817 L25.313467,40.2601719 C25.922063,39.5071633 26.5925501,38.6716332 27.3765043,37.7329513 L28.686533,36.0412607 C28.8515759,35.834957 29.1919771,35.4532951 29.7180516,34.8653295 C29.7993585,34.7765434 29.8931831,34.7000937 29.9965616,34.6383954 L30.1512894,34.6383954 L31.182808,35.7524355 L32.2968481,36.7839542 L31.7707736,37.4338109 C31.386066,37.1087335 30.9755421,36.8155021 30.5432665,36.5570201 C30.4633241,36.5278427 30.3756444,36.5278427 30.295702,36.5570201 C30.0507942,36.7027027 29.8312926,36.8873628 29.6458453,37.1037249 C29.1586995,37.5777143 28.7005624,38.0806317 28.2739255,38.6097421 C27.8819484,39.0842407 27.5002865,39.6412607 27.1186246,40.1260745 C27.8216386,40.8628366 28.572866,41.552036 29.3673352,42.1891117 L31.0383954,43.5404011 C31.3684814,43.2 31.6985673,42.8286533 32.0183381,42.426361 C32.12149,42.3025788 32.4825215,41.8487106 33.0498567,41.0544413 C33.1973385,40.8878364 33.3190325,40.7000799 33.4108883,40.4974212 C33.4158213,40.404265 33.3864653,40.3125277 33.3283668,40.2395415 C33.0585931,39.8802497 32.7430278,39.5577489 32.3896848,39.2802292 L32.9363897,38.5994269 L34.7002865,40.1157593 L36.5776504,41.4773639 L36.0309456,42.147851 C35.6617823,41.7928781 35.2274444,41.5126601 34.7518625,41.3226361 C34.5663032,41.2991245 34.3810788,41.3685836 34.2567335,41.5083095 C33.7943226,41.9343362 33.366607,42.396545 32.9776504,42.8905444 C32.5444126,43.4166189 32.2040115,43.922063 31.9461318,44.2418338 L35.4017192,47.0578797 C35.7300094,47.3295183 36.0744821,47.5809833 36.4332378,47.8108883 C36.8252149,47.408596 37.2584527,46.9031519 37.7535817,46.2945559 C38.2487106,45.6859599 38.6406877,45.1598854 39.0017192,44.6338109 C39.25691,44.329002 39.4528296,43.9791455 39.5793696,43.6022923 C39.5824579,43.5220953 39.5608545,43.4428831 39.5174785,43.3753582 C39.1449871,42.8323697 38.7274685,42.3216858 38.269341,41.8487106 L38.8160458,41.1782235 C39.8475645,42.2097421 40.6624642,42.9627507 41.3638968,43.5404011 L41.3638968,43.7260745 C41.1060172,44.1077364 40.7243553,44.6131805 40.1982808,45.2630372 L39.1461318,46.634957 C38.1146132,47.9243553 37.330659,48.8114613 36.9386819,49.3065903 C36.8252149,49.3891117 36.1031519,50.3174785 34.7518625,52.0401146 Z" id="Shape" fill="#FFFFFF" fill-rule="nonzero"></path>
            <path d="M45.417765,21.4143266 L46.191404,20.8985673 C46.8103152,21.3524355 47.3982808,21.7856734 47.965616,22.1776504 C50.4412607,23.9174785 51.9232092,24.9489971 52.4114613,25.2722063 L55.1965616,27.1908309 L53.6080229,22.5593123 C52.9684814,20.7335244 52.5765043,19.6194842 52.3805158,19.2275072 C52.3407461,19.1305654 52.2924174,19.0373602 52.2361032,18.9489971 C52.1732685,18.8402753 52.0749218,18.7564984 51.9575931,18.7117479 C51.8433125,18.6767131 51.7211574,18.6767131 51.6068768,18.7117479 C51.5449857,18.7117479 51.1530086,18.9489971 50.4309456,19.3512894 L49.9461318,18.6292264 L51.9060172,17.4120344 L53.9690544,15.9679083 L54.4538682,16.6899713 L54.2681948,16.834384 C54.03936,16.9895226 53.8343425,17.1771657 53.6595989,17.391404 C53.6035127,17.5212387 53.5821833,17.6634352 53.5977077,17.8040115 C53.7425331,18.5569252 53.9424987,19.2981769 54.1959885,20.0217765 C54.5879656,21.3318052 55.2275072,23.3845272 56.2590258,26.2108883 C57.2905444,29.0372493 57.7547278,30.6876791 57.9816619,31.1621777 L56.6406877,32.0595989 L53.9793696,30.130659 L47.5323782,25.6229226 C47.6355301,26.3106017 48.1272206,29.0131805 49.0074499,33.730659 L49.6160458,36.6911175 L48.3266476,37.5472779 L40.0744986,29.522063 C39.5491145,28.9657134 38.9837066,28.4485721 38.382808,27.9747851 C38.2491164,27.8766934 38.083407,27.8325042 37.9186246,27.8510029 C37.5486796,27.9499504 37.1993632,28.114129 36.887106,28.3358166 L36.4126074,27.6137536 L38.9088825,26.0045845 L41.7558739,24.034384 L42.2406877,24.7667622 L41.4051576,25.365043 C41.2836716,25.4599448 41.1937674,25.5894069 41.1472779,25.7363897 C41.1204721,25.8678419 41.1546025,26.0043636 41.2401146,26.1077364 C41.2853138,26.1869194 41.3408116,26.2597603 41.4051576,26.3243553 C41.4670487,26.4068768 41.7558739,26.7060172 42.2510029,27.2217765 C43.2825215,28.2532951 43.9426934,28.9547278 44.3140401,29.3570201 L47.4601719,32.4 C47.4601719,32.1936963 47.2744986,31.4406877 47.0269341,30.1203438 L46.4286533,26.8091691 L45.6034384,22.5593123 C45.6034384,22.1982808 45.5002865,21.8166189 45.417765,21.4143266 Z" id="Shape" fill="#FFFFFF" fill-rule="nonzero"></path>
            <path d="M68.2968481,11.2229226 L68.5856734,12.1100287 C68.1775441,12.2437224 67.7779485,12.4021827 67.3891117,12.5845272 C67.2928491,12.6348938 67.208447,12.7052289 67.1415473,12.7908309 C67.1217053,12.8546539 67.1217053,12.9229966 67.1415473,12.9868195 C67.1430824,13.2209103 67.1778122,13.4536001 67.2446991,13.677937 C67.2446991,13.8532951 67.3891117,14.1833811 67.5438395,14.7094556 C68.0492837,16.3702006 68.3277937,17.2573066 68.3690544,17.3810888 L69.6893983,21.434957 L70.3495702,23.260745 C70.4751457,23.7173649 70.6552381,24.1572058 70.8859599,24.5707736 C70.9336529,24.6502549 71.0061371,24.7118664 71.0922636,24.7461318 C71.2044976,24.7697887 71.3204308,24.7697887 71.4326648,24.7461318 C71.838137,24.6660587 72.2378646,24.559235 72.6292264,24.426361 L72.9180516,25.313467 C71.8040115,25.6332378 70.617765,25.9942693 69.3696275,26.3449857 C68.3381089,26.7060172 67.3065903,27.0361032 66.4813754,27.3765043 L66.1925501,26.4893983 C66.904298,26.2315186 67.3065903,26.0664756 67.4097421,26.0148997 C67.512537,25.9703186 67.6015632,25.8990976 67.6676218,25.808596 C67.6874637,25.7447731 67.6874637,25.6764304 67.6676218,25.6126074 C67.6676218,25.530086 67.5851003,25.2 67.4406877,24.6429799 C67.2240688,23.8280802 66.9971347,23.0750716 66.7805158,22.3942693 L65.408596,18.1856734 C64.9753582,16.8550143 64.6762178,16.0091691 64.5111748,15.6378223 C64.3342972,15.1044499 64.1206029,14.584001 63.8716332,14.0802292 C63.8402895,14.0066378 63.7860214,13.945134 63.7169054,13.9048711 C63.6256255,13.8808275 63.5296753,13.8808275 63.4383954,13.9048711 C63.0016818,13.9813425 62.5708362,14.0881922 62.1489971,14.2246418 L61.8601719,13.3375358 C62.7266476,13.1002865 63.7065903,12.8011461 64.8103152,12.4504298 C65.9140401,12.0997135 67.1724928,11.6252149 68.2968481,11.2229226 Z" id="Shape" fill="#FFFFFF" fill-rule="nonzero"></path>
            <path d="M77.4051576,22.9100287 C77.8767407,22.8715999 78.345342,22.8026879 78.8080229,22.7037249 C78.8835743,22.6763356 78.9485524,22.6257971 78.9936963,22.5593123 C79.0583584,22.4348548 79.0936452,22.2972364 79.0968481,22.1570201 C79.0968481,21.8888252 79.0968481,21.2389685 79.0968481,20.217765 C79.0968481,19.6401146 79.0968481,18.8767908 78.9936963,17.9484241 L78.7667622,14.5856734 L78.5191977,11.5633238 C78.503157,11.2169249 78.4617857,10.8721645 78.3954155,10.5318052 C78.3607779,10.4106884 78.3010295,10.2982207 78.2200573,10.2017192 C78.1203566,10.1260377 78.0033623,10.0764037 77.8796562,10.0573066 C77.4343182,10.0101868 76.9863236,9.99295628 76.5386819,10.0057307 L76.4767908,9.0773639 C77.374212,9.0773639 78.034384,9.0773639 78.4573066,9.00515759 L79.9839542,8.87106017 L80.9535817,8.7782235 C82.5318052,10.5730659 84.4297994,12.6361032 86.6681948,14.9673352 C88.2670487,16.6383954 89.5977077,17.9587393 90.6395415,18.8974212 L90.4848138,16.4733524 C90.2269341,12.6979943 90.0412607,10.4905444 89.9071633,9.83037249 C89.9024832,9.64122381 89.8204603,9.46226471 89.6802292,9.33524355 C89.1394576,9.18710524 88.5733972,9.15546211 88.0194842,9.24240688 L87.9575931,8.30372493 C88.8240688,8.30372493 89.6080229,8.30372493 90.330086,8.21088825 C91.052149,8.11805158 91.8979943,8.08710602 92.9810888,7.97363897 L93.0429799,8.90200573 C92.5244749,8.90827284 92.0111498,9.00604907 91.5266476,9.19083095 C91.4748278,9.23280912 91.4385214,9.29089947 91.4234957,9.35587393 C91.3390971,10.161693 91.3390971,10.9741236 91.4234957,11.7799427 C91.4853868,13.0280802 91.5369628,13.956447 91.5782235,14.5547278 C91.8876791,19.217192 92.1249284,22.0538682 92.2796562,23.0441261 L92.1455587,23.1472779 C91.5472779,23.0853868 90.9489971,23.0234957 90.330086,22.982235 C87.8819484,20.5891117 84.4022923,16.9891117 79.8911175,12.182235 L80.2315186,17.4223496 C80.3140401,18.5157593 80.4068768,19.6401146 80.530659,20.8160458 C80.5582672,21.3139345 80.6342702,21.8079541 80.7575931,22.2911175 C80.7876884,22.37086 80.8417402,22.4393257 80.9123209,22.487106 C81.0232746,22.5459889 81.1478352,22.5744599 81.2733524,22.5696275 C81.6169153,22.5891352 81.9613082,22.5891352 82.3048711,22.5696275 L82.5111748,22.5696275 L82.5730659,23.4670487 C81.2320917,23.539255 80.5100287,23.5702006 80.2934097,23.5908309 C79.6022923,23.5908309 78.6842407,23.7146132 77.5186246,23.8383954 L77.4051576,22.9100287 Z" id="Shape" fill="#FFFFFF" fill-rule="nonzero"></path>
            <path d="M115.230946,16.4320917 L114.416046,16.2361032 C114.467622,16.0091691 114.539828,15.6790831 114.62235,15.2045845 C114.670718,14.9424126 114.698311,14.6768309 114.704871,14.4103152 C114.599658,14.1699809 114.453014,13.9500143 114.271633,13.7604585 C113.87547,13.3294433 113.416413,12.9608068 112.910029,12.6670487 C112.312021,12.3309668 111.669586,12.0809382 111.001719,11.9243553 C109.48309,11.467782 107.842264,11.6738219 106.483668,12.4916905 C105.103315,13.4233185 104.152571,14.8680039 103.84298,16.504298 C103.314584,18.2439711 103.46193,20.1189489 104.255587,21.7547278 C104.96264,23.1584179 106.253923,24.177852 107.783381,24.5398281 C108.232305,24.6528323 108.692489,24.7151129 109.155301,24.7255014 C109.619338,24.7264319 110.082331,24.6815146 110.537536,24.591404 C110.599427,24.4160458 110.702579,24.0653295 110.846991,23.5598854 C110.991404,23.0544413 111.06361,22.7243553 111.094556,22.6108883 C111.215158,22.2297919 111.284534,21.8343473 111.30086,21.434957 C111.266188,21.3225682 111.182881,21.2316882 111.073926,21.1873926 C110.458041,20.9189671 109.823761,20.6949007 109.175931,20.5169054 L109.39255,19.6710602 L112.487106,20.4962751 L115.581662,21.2080229 L115.416619,21.8991404 C115.116452,21.855326 114.810087,21.9057862 114.539828,22.043553 C114.404828,22.1903005 114.315255,22.3730304 114.281948,22.5696275 C114.044699,23.3432665 113.889971,23.9002865 113.80745,24.2406877 C113.676791,24.756447 113.563324,25.2928367 113.467049,25.8498567 C112.286,25.9861116 111.096727,26.0378191 109.908309,26.0045845 C108.927503,25.9627114 107.953189,25.8245109 106.999427,25.5919771 C105.59547,25.2710098 104.274282,24.659609 103.120917,23.7971347 C102.422972,23.2681945 101.825548,22.6183658 101.35702,21.87851 C100.932788,21.1995731 100.638936,20.4474524 100.490544,19.660745 C100.260004,18.4529279 100.302296,17.2088569 100.614327,16.0194842 C100.834086,15.056288 101.232993,14.1430005 101.790258,13.3272206 C102.287283,12.6229887 102.918213,12.0236046 103.646991,11.5633238 C104.351818,11.1070562 105.129949,10.7755653 105.947278,10.5833811 C106.754227,10.3912584 107.58383,10.3114221 108.412607,10.3461318 C109.310266,10.397445 110.201207,10.5321223 111.073926,10.7484241 C112.167776,11.016391 113.232095,11.3930493 114.251003,11.8727794 C115.01463,12.2244709 115.74044,12.6530446 116.417192,13.1518625 L116.417192,13.3684814 C115.943347,14.3575585 115.546748,15.3818194 115.230946,16.4320917 L115.230946,16.4320917 Z" id="Shape" fill="#FFFFFF" fill-rule="nonzero"></path>
            <path d="M121.162178,30.5948424 L121.595415,29.852149 C122.02415,30.1210833 122.489787,30.3261029 122.97765,30.460745 C123.164452,30.465146 123.344369,30.3901804 123.472779,30.2544413 C124.026358,29.5270411 124.522962,28.7579945 124.958166,27.9541547 L128.166189,22.487106 C128.679295,21.668909 129.15095,20.8254379 129.57937,19.9598854 L128.279656,19.1965616 C127.629799,18.8148997 127.041834,18.4951289 126.526074,18.2475645 C126.406886,18.1745435 126.273038,18.1287534 126.134097,18.113467 C126.072206,18.113467 125.969054,18.2166189 125.834957,18.3713467 C125.474386,18.7961737 125.146786,19.247917 124.855014,19.7226361 L124.112321,19.2790831 L125.298567,17.1541547 C125.432665,16.8756447 125.577077,16.5661891 125.711175,16.2361032 L125.845272,16.2361032 L126.742693,16.8137536 C127.258453,17.1335244 128.259026,17.72149 129.754728,18.5982808 L133.437249,20.7747851 C134.974212,21.6722063 136.005731,22.2704871 136.531805,22.5593123 C136.810315,22.7243553 137.109456,22.8790831 137.398281,23.0234957 L137.398281,23.1679083 C137.159321,23.4623262 136.935535,23.7687415 136.727794,24.0859599 C136.727794,24.0859599 136.284241,24.7873926 135.520917,26.0561605 L134.767908,25.6126074 C135.026272,25.1502374 135.253705,24.6712505 135.448711,24.1787966 C135.518468,24.033667 135.557117,23.8755576 135.562178,23.7146132 C135.495424,23.6195939 135.407033,23.5418098 135.304298,23.4876791 C134.735951,23.0797939 134.147224,22.7010811 133.540401,22.3530086 L132.251003,21.5381089 C132.10659,21.7444126 131.601146,22.5696275 130.744986,24.0240688 L127.536963,29.4911175 C127.038766,30.2627574 126.610694,31.0774745 126.25788,31.9255014 C126.204617,32.0984353 126.227106,32.2858382 126.319771,32.4412607 C126.671194,32.7989074 127.074593,33.1014562 127.516332,33.3386819 L127.072779,34.0916905 C125.917479,33.3696275 124.937536,32.7610315 124.132951,32.286533 C123.328367,31.8120344 122.307163,31.2240688 121.162178,30.5948424 Z" id="Shape" fill="#FFFFFF" fill-rule="nonzero"></path>
            <path d="M138.997135,33.6275072 C139.819654,32.8233919 140.789898,32.1859035 141.854441,31.7501433 C143.682248,31.0466347 145.723249,31.155438 147.465903,32.0492837 C148.531038,32.6263673 149.495912,33.3717935 150.323209,34.2567335 C151.144362,35.1146679 151.820263,36.1006476 152.324355,37.1759312 C152.656551,37.914159 152.845571,38.7087436 152.881375,39.5174785 C152.921414,40.2130038 152.844709,40.9103242 152.654441,41.5805158 C152.460199,42.1932984 152.18252,42.776423 151.829226,43.313467 C151.428025,43.9136614 150.95712,44.4642041 150.426361,44.9535817 C149.518686,45.8403593 148.446436,46.5411765 147.269914,47.0166189 C146.422758,47.3467891 145.5173,47.5012084 144.608596,47.4704871 C143.700985,47.44604 142.807119,47.2427293 141.978223,46.8722063 C140.767117,46.298617 139.680607,45.4924967 138.780516,44.4997135 C137.786767,43.4919007 137.041557,42.2663666 136.604011,40.9203438 C136.237582,39.7131537 136.237582,38.4243821 136.604011,37.217192 C137.065657,35.8278123 137.892186,34.5880187 138.997135,33.6275072 L138.997135,33.6275072 Z M141.679083,35.5770774 C140.63419,36.4958533 139.77916,37.6101962 139.162178,38.8573066 C138.717396,39.7282647 138.555144,40.7162007 138.697994,41.6836676 C139.088673,43.3876377 140.352413,44.7573438 142.019484,45.2836676 C142.924151,45.4978224 143.874222,45.4071668 144.722063,45.025788 C145.870832,44.5327103 146.919636,43.8335076 147.816619,42.9627507 C148.488653,42.3545257 149.078187,41.6609559 149.570201,40.8997135 C149.990893,40.2727866 150.29168,39.5732817 150.457307,38.8366762 C150.607135,38.1989398 150.607135,37.5351577 150.457307,36.8974212 C150.238171,36.1745709 149.840906,35.5183747 149.302006,34.9891117 C148.682525,34.2897882 147.86644,33.793666 146.960458,33.565616 C146.070196,33.3745728 145.141743,33.4833759 144.319771,33.8750716 C143.349241,34.2882673 142.456228,34.8638423 141.679083,35.5770774 Z" id="Shape" fill="#FFFFFF" fill-rule="nonzero"></path>
            <path d="M148.15702,53.72149 C148.370053,54.1442298 148.607711,54.5541034 148.868768,54.9489971 C148.926058,55.004714 148.997338,55.0439176 149.075072,55.0624642 C149.20752,55.0922064 149.344916,55.0922064 149.477364,55.0624642 C149.735244,54.9902579 150.34384,54.7633238 151.292837,54.3713467 C151.829226,54.1512894 152.516905,53.8418338 153.355874,53.4429799 L156.398854,51.9988539 L159.132378,50.6269341 C159.437747,50.4942848 159.731099,50.3355296 160.009169,50.1524355 C160.112305,50.0759433 160.196915,49.977232 160.256734,49.8636103 C160.289593,49.7420089 160.289593,49.6138651 160.256734,49.4922636 C160.134227,49.0629499 159.982585,48.6424903 159.802865,48.2338109 L160.648711,47.8315186 C160.999427,48.6670487 161.257307,49.2653295 161.44298,49.6469914 L162.165043,50.9673352 L162.608596,51.8338109 C161.515186,53.9587393 160.294556,56.4859599 158.946705,59.4154728 C157.977077,61.5335244 157.244699,63.2527221 156.74957,64.5730659 L158.946705,63.5415473 C162.3851,61.9186246 164.375931,60.9283668 164.919198,60.5707736 C165.135817,60.4366762 165.259599,60.312894 165.290544,60.1891117 C165.233794,59.6288945 165.057945,59.0872806 164.774785,58.6005731 L165.62063,58.208596 C165.950716,59.0028653 166.260172,59.7249284 166.569628,60.3644699 C166.879083,61.0040115 167.27106,61.7879656 167.766189,62.7472779 L166.930659,63.1495702 C166.732679,62.6695575 166.449625,62.2292515 166.095129,61.8498567 C166.03607,61.8233792 165.968515,61.8233792 165.909456,61.8498567 C165.128794,62.0606581 164.371821,62.3510037 163.65043,62.7163324 C162.505444,63.2320917 161.659599,63.6137536 161.123209,63.8716332 C156.893983,65.8727794 154.346132,67.1277937 153.479656,67.6366762 L153.335244,67.5541547 C153.180516,66.9765043 153.005158,66.3885387 152.829799,65.8005731 C154.150143,62.6510029 156.213181,58.0916905 159.018911,52.1226361 L154.273926,54.3713467 C153.242407,54.8355301 152.272779,55.3409742 151.17937,55.8876791 C150.727296,56.0984339 150.295661,56.3505082 149.889971,56.6406877 C149.829715,56.7002447 149.786908,56.7751571 149.766189,56.8573066 C149.752243,56.9834517 149.76997,57.1110835 149.817765,57.2286533 C149.962178,57.6618911 150.08596,57.9816619 150.168481,58.1673352 L150.271633,58.3530086 L149.456734,58.7449857 L148.507736,56.6819484 C148.218911,56.0630372 147.795989,55.2378223 147.259599,54.1959885 L148.15702,53.72149 Z" id="Shape" fill="#FFFFFF" fill-rule="nonzero"></path>
            <path d="M19.4441261,90.1753582 C19.4441261,91.8844342 18.0586462,93.269914 16.3495702,93.269914 C14.6404942,93.269914 13.2550143,91.8844342 13.2550143,90.1753582 C13.2550143,88.4662821 14.6404942,87.0808023 16.3495702,87.0808023 C18.0586462,87.0808023 19.4441261,88.4662821 19.4441261,90.1753582 L19.4441261,90.1753582 Z" id="Shape" fill="#FFFFFF"></path>
            <path d="M166.507736,90.1753582 C166.507736,91.8844342 165.122257,93.269914 163.413181,93.269914 C161.704104,93.269914 160.318625,91.8844342 160.318625,90.1753582 C160.318625,88.4662821 161.704104,87.0808023 163.413181,87.0808023 C164.233908,87.0808023 165.02102,87.4068349 165.601362,87.9871767 C166.181704,88.5675185 166.507736,89.3546309 166.507736,90.1753582 L166.507736,90.1753582 Z" id="Shape" fill="#FFFFFF"></path>
            <path d="M49.7295129,119.769628 C50.3042252,119.102171 51.1205149,118.690316 51.9988539,118.624642 C53.5151862,118.624642 54.6704871,120.17192 55.0315186,120.687679 C55.3925501,121.203438 56.547851,122.750716 58.0641834,122.750716 C59.5805158,122.750716 60.7358166,121.203438 61.1587393,120.687679 C61.5816619,120.17192 62.6750716,118.624642 64.191404,118.624642 C65.7077364,118.624642 66.8630372,120.17192 67.2859599,120.687679 C67.7088825,121.203438 68.8022923,122.750716 70.3186246,122.750716 C71.834957,122.750716 72.9902579,121.203438 73.3512894,120.687679 C73.7123209,120.17192 74.877937,118.624642 76.4458453,118.624642 C78.0137536,118.624642 79.1174785,120.17192 79.47851,120.687679 C79.8395415,121.203438 80.9948424,122.750716 82.5111748,122.750716 C84.0275072,122.750716 85.182808,121.203438 85.6057307,120.687679 C86.0286533,120.17192 87.122063,118.624642 88.6383954,118.624642 C90.1547278,118.624642 91.3100287,120.17192 91.6710602,120.687679 C92.0320917,121.203438 93.1977077,122.750716 94.765616,122.750716 C96.3335244,122.750716 97.4372493,121.203438 97.7982808,120.687679 C98.1593123,120.17192 99.3146132,118.624642 100.892837,118.624642 C102.47106,118.624642 103.56447,120.17192 103.925501,120.687679 C104.286533,121.203438 105.441834,122.750716 106.958166,122.750716 C108.474499,122.750716 109.640115,121.203438 110.052722,120.687679 C110.46533,120.17192 111.569054,118.624642 113.085387,118.624642 C114.24318,118.77743 115.276008,119.429544 115.911748,120.409169 C129.871797,113.416845 139.857695,100.412751 143.009742,85.1209169 C140.946705,87.0292264 112.332378,91.9495702 103.554155,90.0206304 C94.7759312,88.0916905 79.0143266,81.8819484 55.0934097,111.85788 C55.0934097,111.85788 55.5575931,99.4796562 61.922063,94.2498567 C68.286533,89.0200573 84.8939828,84.2750716 91.0830946,75.4452722 C98.0252149,65.5633238 91.7020057,48.7805158 78.7048711,48.7805158 C78.7048711,48.6567335 55.382235,48.7805158 52.9787966,55.1862464 C52.2051576,57.2492837 53.72149,59.260745 53.2676218,61.3031519 C52.7518625,63.634384 51.2045845,64.8206304 51.2045845,67.5747851 C61.6022923,66.5432665 68.2452722,49.4613181 80.1593123,55.2790831 C82.5130322,56.4528418 84.1319076,58.7169491 84.4813754,61.3237822 C85.8223496,71.4532951 70.5249284,77.9724928 63.4383954,81.2424069 L53.2882521,87.0601719 C48.9765043,89.9587393 44.7472779,94.0848138 42.8286533,98.8813754 C41.9715612,101.475319 41.7175519,104.230614 42.0859599,106.937536 C42.8325973,112.058821 45.5818037,116.674222 49.7295129,119.769628 L49.7295129,119.769628 Z" id="Shape" fill="#FFFFFF" fill-rule="nonzero"></path>
            <path d="M95.4876791,95.4567335 L95.4876791,95.4567335 C99.4487106,94.8584527 106.834384,97.5197708 111.269914,99.0670487 L114.591404,100.191404 C116.15952,100.636297 117.765075,100.936691 119.387966,101.088825 C116.834388,101.812782 114.221072,102.306447 111.57937,102.563897 C107.360458,102.955874 100.077937,100.284241 95.7249284,98.695702 C94.3787522,98.1520383 93.000869,97.6904474 91.5988539,97.313467 C91.052149,97.2103152 90.4641834,97.1381089 89.8762178,97.0762178 C91.6650204,96.2855482 93.5526606,95.7407697 95.4876791,95.4567335 L95.4876791,95.4567335 Z" id="Shape" fill="#212529"></path>
            <path d="M86.0905444,99.6962751 L86.0905444,99.6962751 C90.0515759,99.0979943 97.4372493,101.759312 101.872779,103.30659 L105.183954,104.430946 C106.755576,104.875838 108.364554,105.176226 109.990831,105.328367 C107.436813,106.050452 104.823665,106.544085 102.182235,106.803438 C97.9633238,107.195415 90.6808023,104.523782 86.3277937,102.935244 C84.9813865,102.395077 83.603507,101.936932 82.2017192,101.563324 C81.632552,101.451151 81.0573828,101.371937 80.4790831,101.326074 C82.2659098,100.527856 84.1541249,99.9794403 86.0905444,99.6962751 L86.0905444,99.6962751 Z" id="Shape" fill="#212529"></path>
            <path d="M76.6830946,103.946132 L76.6830946,103.946132 C80.6441261,103.347851 88.0297994,106.009169 92.4653295,107.546132 L95.7868195,108.680802 C97.3563743,109.117419 98.961489,109.414279 100.583381,109.567908 C98.0309745,110.296821 95.417205,110.790571 92.7747851,111.04298 C88.5558739,111.434957 81.2733524,108.773639 76.9203438,107.1851 C75.5753709,106.638182 74.1972844,106.176523 72.7942693,105.802865 C72.2475645,105.689398 71.6595989,105.627507 71.0613181,105.565616 C72.8525984,104.77188 74.7440697,104.226997 76.6830946,103.946132 L76.6830946,103.946132 Z" id="Shape" fill="#212529"></path>
        </g>
    </g>
</svg>