<?xml version="1.0" encoding="UTF-8"?>
<svg width="247px" height="44px" viewBox="0 0 247 44" version="1.1" xmlns="http://www.w3.org/2000/svg" xmlns:xlink="http://www.w3.org/1999/xlink">
    <title>Slice</title>
    <g id="Page-1" stroke="none" stroke-width="1" fill="none" fill-rule="evenodd">
        <g id="Group-Copy" transform="translate(0.4, 0.16)">
            <g id="skorch" transform="translate(53.2, 0)" fill="#FFFFFF" fill-rule="nonzero">
                <polygon id="Path" points="0 36.48 0.54 33.3 8.34 33.3 8.04 34.98 9.12 36.36 18.84 36.36 20.4 34.98 20.82 32.4 19.74 30.96 7.32 30.96 2.22 24.78 3.42 18.24 9.6 12.96 25.2 12.96 30.36 19.32 29.76 22.5 21.96 22.5 22.26 20.82 21.18 19.44 12.3 19.44 10.74 20.82 10.38 23.16 11.46 24.6 23.88 24.6 28.98 30.78 27.78 37.56 21.6 42.84 5.16 42.84"></polygon>
                <polygon id="Path" points="40.14 0 48.06 0 43.8 23.94 48.66 23.94 58.2 12.96 67.32 12.96 54.78 27.36 62.64 42.84 54.48 42.84 48.24 30.66 42.6 30.66 40.44 42.84 32.52 42.84"></polygon>
                <path d="M67.14,36.12 L70.2,18.72 L76.92,12.96 L94.02,12.96 L99.54,19.68 L96.48,37.2 L89.94,42.84 L72.66,42.84 L67.14,36.12 Z M86.64,36.24 L89.1,34.14 L91.26,21.66 L89.52,19.56 L80.1,19.56 L77.64,21.66 L75.42,34.14 L77.16,36.24 L86.64,36.24 Z" id="Shape"></path>
                <polygon id="Path" points="107.34 12.96 114.66 12.96 113.76 17.94 119.46 12.96 127.98 12.96 126.78 19.68 120.12 19.68 112.92 25.92 109.98 42.84 102.06 42.84"></polygon>
                <polygon id="Path" points="127.2 36.24 130.26 18.6 136.86 12.96 153.3 12.96 158.76 19.68 157.86 24.72 149.94 24.72 150.48 21.78 148.74 19.68 140.1 19.68 137.64 21.78 135.48 34.02 137.22 36.12 145.86 36.12 148.32 34.02 148.86 31.08 156.78 31.08 155.64 37.2 149.1 42.84 132.54 42.84"></polygon>
                <polygon id="Path" points="167.64 0 175.56 0 172.44 17.4 177.66 12.96 186.96 12.96 192.84 20.1 188.82 42.84 180.9 42.84 184.62 21.78 182.94 19.68 178.02 19.68 171 25.68 168 42.84 160.08 42.84"></polygon>
            </g>
            <polygon id="Triangle" fill="#FF7221" points="26 3.84 41.6 42.84 0 42.84"></polygon>
        </g>
    </g>
</svg>